<svg width="170" height="41" viewBox="0 0 170 41" fill="none" xmlns="http://www.w3.org/2000/svg">
<path d="M62.0685 15.3892H56.5005V12.8452H70.7805V15.3892H65.1885V29.9332H62.0685V15.3892ZM77.3335 17.5252C77.7975 17.5252 78.1975 17.5892 78.5335 17.7172L78.5095 20.4532C77.9975 20.2452 77.4695 20.1412 76.9255 20.1412C75.9015 20.1412 75.1175 20.4372 74.5735 21.0292C74.0455 21.6212 73.7815 22.4052 73.7815 23.3812V29.9332H70.8055V21.2452C70.8055 19.9652 70.7415 18.8212 70.6135 17.8132H73.4215L73.6615 19.9492C73.9655 19.1652 74.4455 18.5652 75.1015 18.1492C75.7575 17.7332 76.5015 17.5252 77.3335 17.5252ZM91.5615 17.8132V29.9332H88.6095V27.9892C88.2415 28.6612 87.7135 29.1892 87.0255 29.5732C86.3375 29.9412 85.5535 30.1252 84.6735 30.1252C83.6175 30.1252 82.6815 29.8692 81.8655 29.3572C81.0495 28.8452 80.4175 28.1172 79.9695 27.1732C79.5215 26.2292 79.2975 25.1332 79.2975 23.8852C79.2975 22.6372 79.5215 21.5332 79.9695 20.5732C80.4335 19.5972 81.0735 18.8452 81.8895 18.3172C82.7055 17.7732 83.6335 17.5012 84.6735 17.5012C85.5535 17.5012 86.3375 17.6932 87.0255 18.0772C87.7135 18.4452 88.2415 18.9652 88.6095 19.6372V17.8132H91.5615ZM85.4895 27.7732C86.4815 27.7732 87.2495 27.4292 87.7935 26.7412C88.3375 26.0532 88.6095 25.0852 88.6095 23.8372C88.6095 22.5572 88.3375 21.5732 87.7935 20.8852C87.2495 20.1972 86.4735 19.8532 85.4655 19.8532C84.4735 19.8532 83.6975 20.2132 83.1375 20.9332C82.5935 21.6372 82.3215 22.6212 82.3215 23.8852C82.3215 25.1332 82.5935 26.0932 83.1375 26.7652C83.6975 27.4372 84.4815 27.7732 85.4895 27.7732ZM100.565 14.6452C99.2689 14.6452 98.6209 15.3572 98.6209 16.7812V17.8132H101.333V20.0692H98.6209V29.9332H95.6209V20.0692H93.3169V17.8132H95.6209V16.6372C95.6209 15.1972 95.9809 14.0932 96.7009 13.3252C97.4369 12.5412 98.4849 12.1492 99.8449 12.1492C100.597 12.1492 101.229 12.2452 101.741 12.4372V14.8132C101.293 14.7012 100.901 14.6452 100.565 14.6452ZM115.116 17.8132V29.9332H112.164V27.9892C111.796 28.6612 111.268 29.1892 110.58 29.5732C109.892 29.9412 109.108 30.1252 108.228 30.1252C107.172 30.1252 106.236 29.8692 105.42 29.3572C104.604 28.8452 103.972 28.1172 103.524 27.1732C103.076 26.2292 102.852 25.1332 102.852 23.8852C102.852 22.6372 103.076 21.5332 103.524 20.5732C103.988 19.5972 104.628 18.8452 105.444 18.3172C106.26 17.7732 107.188 17.5012 108.228 17.5012C109.108 17.5012 109.892 17.6932 110.58 18.0772C111.268 18.4452 111.796 18.9652 112.164 19.6372V17.8132H115.116ZM109.044 27.7732C110.036 27.7732 110.804 27.4292 111.348 26.7412C111.892 26.0532 112.164 25.0852 112.164 23.8372C112.164 22.5572 111.892 21.5732 111.348 20.8852C110.804 20.1972 110.028 19.8532 109.02 19.8532C108.028 19.8532 107.252 20.2132 106.692 20.9332C106.148 21.6372 105.876 22.6212 105.876 23.8852C105.876 25.1332 106.148 26.0932 106.692 26.7652C107.252 27.4372 108.036 27.7732 109.044 27.7732ZM118.384 12.2692H121.36V29.9332H118.384V12.2692ZM136.353 17.8132V29.5492C136.353 31.4372 135.833 32.8692 134.793 33.8452C133.753 34.8212 132.225 35.3092 130.209 35.3092C128.337 35.3092 126.689 34.9172 125.265 34.1332L125.745 31.8532C127.217 32.6212 128.681 33.0052 130.137 33.0052C132.297 33.0052 133.377 31.9332 133.377 29.7892V27.3892C133.009 28.0452 132.473 28.5812 131.769 28.9972C131.065 29.3972 130.273 29.5972 129.393 29.5972C128.337 29.5972 127.393 29.3492 126.561 28.8532C125.745 28.3412 125.105 27.6292 124.641 26.7172C124.193 25.7892 123.969 24.7332 123.969 23.5492C123.969 22.3652 124.193 21.3172 124.641 20.4052C125.105 19.4772 125.745 18.7652 126.561 18.2692C127.393 17.7572 128.337 17.5012 129.393 17.5012C130.289 17.5012 131.081 17.6932 131.769 18.0772C132.473 18.4452 133.009 18.9652 133.377 19.6372V17.8132H136.353ZM130.185 27.2452C131.177 27.2452 131.953 26.9172 132.513 26.2612C133.089 25.6052 133.377 24.7012 133.377 23.5492C133.377 22.3972 133.097 21.4932 132.537 20.8372C131.977 20.1812 131.193 19.8532 130.185 19.8532C129.193 19.8532 128.409 20.1812 127.833 20.8372C127.273 21.4932 126.993 22.3972 126.993 23.5492C126.993 24.7012 127.273 25.6052 127.833 26.2612C128.409 26.9172 129.193 27.2452 130.185 27.2452ZM151.187 17.8132V29.9332H148.235V27.9892C147.867 28.6612 147.339 29.1892 146.651 29.5732C145.963 29.9412 145.179 30.1252 144.299 30.1252C143.243 30.1252 142.307 29.8692 141.491 29.3572C140.675 28.8452 140.043 28.1172 139.595 27.1732C139.147 26.2292 138.923 25.1332 138.923 23.8852C138.923 22.6372 139.147 21.5332 139.595 20.5732C140.059 19.5972 140.699 18.8452 141.515 18.3172C142.331 17.7732 143.259 17.5012 144.299 17.5012C145.179 17.5012 145.963 17.6932 146.651 18.0772C147.339 18.4452 147.867 18.9652 148.235 19.6372V17.8132H151.187ZM145.115 27.7732C146.107 27.7732 146.875 27.4292 147.419 26.7412C147.963 26.0532 148.235 25.0852 148.235 23.8372C148.235 22.5572 147.963 21.5732 147.419 20.8852C146.875 20.1972 146.099 19.8532 145.091 19.8532C144.099 19.8532 143.323 20.2132 142.763 20.9332C142.219 21.6372 141.947 22.6212 141.947 23.8852C141.947 25.1332 142.219 26.0932 142.763 26.7652C143.323 27.4372 144.107 27.7732 145.115 27.7732ZM160.982 17.5252C161.446 17.5252 161.846 17.5892 162.182 17.7172L162.158 20.4532C161.646 20.2452 161.118 20.1412 160.574 20.1412C159.55 20.1412 158.766 20.4372 158.222 21.0292C157.694 21.6212 157.43 22.4052 157.43 23.3812V29.9332H154.454V21.2452C154.454 19.9652 154.39 18.8212 154.262 17.8132H157.07L157.31 19.9492C157.614 19.1652 158.094 18.5652 158.75 18.1492C159.406 17.7332 160.15 17.5252 160.982 17.5252Z" fill="#233348"/>
<ellipse cx="21.9203" cy="20.2719" rx="21.6305" ry="20.2719" fill="#458FF6"/>
<path d="M20.3507 15.1884H14.3187V12.4324H29.7887V15.1884H23.7307V30.9444H20.3507V15.1884Z" fill="white"/>
</svg>
